<?xml version="1.0" standalone="no"?><!DOCTYPE svg PUBLIC "-//W3C//DTD SVG 1.1//EN" "http://www.w3.org/Graphics/SVG/1.1/DTD/svg11.dtd"><svg class="icon" style="" viewBox="0 0 1024 1024" version="1.1" xmlns="http://www.w3.org/2000/svg" p-id="37316" xmlns:xlink="http://www.w3.org/1999/xlink" width="14" height="14"><defs><style type="text/css"><![CDATA[

]]></style></defs><path d="M511 956.01c244.834 0 444.01-199.187 444.01-444.01S755.834 67.99 511 67.99 66.99 267.177 66.99 512 266.166 956.01 511 956.01zM247.412 464.934l238.712-238.711c25.884-25.873 67.035-27.087 91.446-2.687 24.411 24.4 23.197 65.573-2.687 91.446L444.431 445.431l288.465 0c36.611 0 66.569 29.947 66.569 66.569 0 36.622-29.958 66.569-66.569 66.569L444.431 578.569l130.451 130.451c25.884 25.873 27.098 67.046 2.687 91.446-24.411 24.4-65.562 23.186-91.446-2.687L247.412 559.066C221.527 533.193 221.527 490.807 247.412 464.934z" p-id="37317" fill="#ff5733"></path></svg>