<?xml version="1.0" standalone="no"?><!DOCTYPE svg PUBLIC "-//W3C//DTD SVG 1.1//EN" "http://www.w3.org/Graphics/SVG/1.1/DTD/svg11.dtd"><svg class="icon" style="" viewBox="0 0 1024 1024" version="1.1" xmlns="http://www.w3.org/2000/svg" p-id="21309" xmlns:xlink="http://www.w3.org/1999/xlink" width="14" height="14"><defs><style type="text/css"><![CDATA[

]]></style></defs><path d="M512 30.464c-265.984 0-481.536 215.68-481.536 481.536 0 265.92 215.552 481.408 481.536 481.408s481.536-215.488 481.536-481.408C993.6 246.208 778.048 30.464 512 30.464zM619.264 550.848c0 38.976-30.784 70.72-69.248 72.256-3.904 0.64-7.936 0.896-12.032 0.896l-215.744 0c-40.704 0-73.536-32.768-73.536-73.344s32.832-73.472 73.536-73.472l152.704 0 0-213.44c0-39.872 32.32-72.128 72-72.128 40 0 72.256 32.32 72.256 72.128L619.2 550.848 619.264 550.848z" p-id="21310" fill="#fb9600"></path></svg>