<?xml version="1.0" standalone="no"?><!DOCTYPE svg PUBLIC "-//W3C//DTD SVG 1.1//EN" "http://www.w3.org/Graphics/SVG/1.1/DTD/svg11.dtd"><svg class="icon" style="" viewBox="0 0 1024 1024" version="1.1" xmlns="http://www.w3.org/2000/svg" p-id="1814" xmlns:xlink="http://www.w3.org/1999/xlink" width="14" height="14"><defs><style type="text/css"><![CDATA[

]]></style></defs><path d="M512 1024C229.205333 1024 0 794.837333 0 512S229.205333 0 512 0c282.837333 0 512 229.162667 512 512S794.837333 1024 512 1024L512 1024zM563.328 255.957333l-102.613333 0 0 102.357333 102.613333 0L563.328 255.957333 563.328 255.957333zM563.328 460.970667l-102.613333 0 0 102.058667 102.613333 0L563.328 460.970667 563.328 460.970667zM870.4 409.642667c0-28.373333-22.954667-51.285333-51.072-51.285333C790.954667 358.314667 768 381.269333 768 409.642667L768 512l0 102.357333c0 0 3.541333 51.242667-102.314667 51.242667L358.4 665.6C250.112 665.642667 256 614.357333 256 614.357333l0-51.328 0-50.986667 0-51.029333L256 409.685333C256 381.312 233.088 358.4 204.714667 358.4c-28.117333 0-51.072 22.869333-51.072 51.242667l0 102.357333L153.642667 614.4c0 84.864 68.736 153.642667 153.685333 153.642667l409.642667 0c84.565333 0 153.386667-68.736 153.386667-153.642667l0-102.357333 0 0L870.4 409.642667 870.4 409.642667z" p-id="1815" fill="#3974ba"></path></svg>