<?xml version="1.0" standalone="no"?><!DOCTYPE svg PUBLIC "-//W3C//DTD SVG 1.1//EN" "http://www.w3.org/Graphics/SVG/1.1/DTD/svg11.dtd"><svg class="icon" style="" viewBox="0 0 1024 1024" version="1.1" xmlns="http://www.w3.org/2000/svg" p-id="16990" xmlns:xlink="http://www.w3.org/1999/xlink" width="14" height="14"><defs><style type="text/css"><![CDATA[

]]></style></defs><path d="M512 0C230.4 0 0 230.4 0 512c0 281.6 230.4 512 512 512 281.6 0 512-230.4 512-512C1024 230.4 793.6 0 512 0zM499.2 780.8c-25.6 25.6-70.4 25.6-96 0L179.2 563.2c-25.6-25.6-25.6-70.4 0-96 25.6-25.6 70.4-25.6 96 0L448 633.6l332.8-326.4c25.6-25.6 70.4-25.6 96 0 25.6 25.6 25.6 70.4 0 96L499.2 780.8z" p-id="16991" fill="#00aa7c"></path></svg>